<svg version="1.1" id="Layer_1" xmlns="http://www.w3.org/2000/svg" xmlns:xlink="http://www.w3.org/1999/xlink" x="0px" y="0px"
	 width="100%" viewBox="0 0 425 100" enable-background="new 0 0 425 100" xml:space="preserve">
<path fill="#FFFEFE" opacity="1.000000" stroke="none" 
	d="
M68.000000,101.000000 
	C45.676041,101.000000 23.352079,101.000000 1.021089,101.000000 
	C1.014059,67.690033 1.014059,34.380058 1.014059,1.035043 
	C142.583847,1.035043 284.167694,1.035043 425.875793,1.035043 
	C425.875793,34.236115 425.875793,67.472855 425.875793,101.000000 
	C309.312592,101.000000 192.624954,101.000000 75.587311,100.671532 
	C77.540443,99.007439 79.727615,97.383354 82.172539,96.400360 
	C86.373962,94.711159 86.665688,91.742950 85.553566,87.473457 
	C82.900383,88.947151 80.453362,90.269196 78.041695,91.652870 
	C70.912994,95.742874 70.918465,95.752403 64.023163,90.465004 
	C64.871956,89.888725 65.585732,89.169159 66.446960,88.858864 
	C70.853867,87.271111 72.641579,84.213463 71.739784,79.650894 
	C70.628647,74.029137 72.964401,70.515129 78.182831,68.570427 
	C79.415794,68.110954 80.462700,67.159134 81.691063,66.679123 
	C85.836494,65.059212 87.066772,62.189053 85.498917,57.572113 
	C82.538246,59.189552 79.653107,60.729538 76.802261,62.330601 
	C70.589966,65.819481 69.767059,65.697266 64.288353,60.233761 
	C67.444069,57.599678 73.244484,57.063908 71.770615,50.745571 
	C70.287941,44.389530 73.024094,40.360962 78.965317,38.162682 
	C80.042427,37.764137 80.936340,36.873726 82.011871,36.467033 
	C86.312973,34.840649 86.875160,31.866705 85.360542,27.569304 
	C82.489700,29.176500 79.889671,30.604582 77.315819,32.078392 
	C70.697006,35.868389 69.975708,35.780594 64.500061,30.509586 
	C66.883377,28.605787 71.003227,26.958960 71.363701,24.709654 
	C72.332405,18.665081 71.694481,12.363029 71.694481,6.163210 
	C71.230339,5.872077 70.766205,5.580944 70.302063,5.289810 
	C65.897438,8.722881 61.492813,12.155953 57.088188,15.589024 
	C58.801922,23.515772 51.902653,34.092674 65.238525,38.651596 
	C61.947449,40.650959 59.421738,42.160061 56.921032,43.709518 
	C50.561108,47.650181 49.649521,47.545811 44.262123,42.377262 
	C46.550602,40.224415 50.411560,38.327549 50.839672,35.839909 
	C51.828777,30.092449 51.153862,24.058622 51.153862,16.407290 
	C45.562260,20.415359 41.135010,23.588820 36.707760,26.762280 
	C38.403339,34.986168 31.232990,45.890518 44.811245,50.379528 
	C41.564667,52.517864 39.086815,54.149883 36.256256,55.846054 
	C29.847265,59.078819 28.708942,58.887760 23.776281,53.928120 
	C26.102856,51.989525 30.096464,50.304615 30.446817,48.052853 
	C31.386745,42.011818 30.767509,35.728188 30.767509,29.066824 
	C29.338015,29.713846 28.733860,29.950640 28.163166,30.251013 
	C16.200733,36.547264 16.180548,36.548737 16.219694,50.029510 
	C16.226860,52.497517 15.508134,56.133644 16.804556,57.213451 
	C20.706909,60.463760 25.254099,63.161938 29.949438,65.114334 
	C31.533745,65.773109 34.313801,63.556213 36.608437,63.132858 
	C36.674942,66.101418 36.571793,68.597290 36.722931,71.077682 
	C36.828621,72.812248 36.799934,75.709862 37.657238,76.058823 
	C43.830166,78.571480 48.356689,87.190674 57.935806,80.430817 
	C54.508492,91.267944 58.914162,96.960617 67.614853,100.175606 
	C67.817162,100.250351 67.874855,100.716446 68.000000,101.000000 
M92.055595,37.242920 
	C94.382645,45.478043 96.662460,53.726910 99.053703,61.943348 
	C100.589745,67.221260 105.006279,64.390633 108.170341,64.954536 
	C110.869980,65.435677 111.596748,63.962421 112.161011,61.313084 
	C113.326691,55.839931 115.270256,50.532455 116.893845,45.156830 
	C118.534554,48.373161 119.318275,51.335175 119.996994,54.321053 
	C122.529358,65.461723 122.516464,65.465401 134.023132,64.936882 
	C134.175842,64.929863 134.323120,64.804512 134.591736,64.678787 
	C137.769058,53.002373 140.968338,41.245300 144.300110,29.001299 
	C142.057968,29.001299 140.392410,29.175421 138.776505,28.966166 
	C135.060516,28.484961 133.153198,29.512718 132.545502,33.690926 
	C131.715317,39.398682 129.971588,44.973564 128.446655,51.325363 
	C126.303452,43.436352 124.338493,36.203403 122.439850,29.214586 
	C118.777397,29.214586 115.477501,29.214586 112.258980,29.214586 
	C110.262611,36.305717 108.328857,43.174423 106.395111,50.043129 
	C106.131020,50.009644 105.866936,49.976158 105.602844,49.942669 
	C103.985718,42.982235 102.368599,36.021801 100.768425,29.134354 
	C97.004921,29.134354 93.705429,29.134354 90.427414,29.134354 
	C90.971596,31.641325 91.489235,34.025970 92.055595,37.242920 
M168.466385,35.991188 
	C171.469452,37.041298 174.472519,38.091412 177.544296,39.165546 
	C178.710571,30.203051 178.282776,29.188278 170.928406,28.140226 
	C166.847000,27.558594 162.557510,27.573635 158.465759,28.111095 
	C150.361969,29.175543 145.780350,36.002033 148.070465,43.397549 
	C149.609940,48.369019 154.177994,49.694668 158.606979,51.010838 
	C162.150650,52.063908 165.647751,53.273590 170.013580,54.688637 
	C161.129608,63.177223 154.542374,55.581627 147.591293,53.820736 
	C146.297897,61.360733 146.434998,62.927654 149.499207,64.042229 
	C157.062881,66.793442 164.802368,67.407784 172.358078,64.088707 
	C176.504730,62.267170 178.997711,59.144764 179.081818,54.166355 
	C179.166718,49.141617 176.718735,46.065968 172.504379,44.276184 
	C169.867966,43.156532 166.844345,42.968281 164.164215,41.925747 
	C161.985138,41.078117 160.058472,39.581543 158.019882,38.372761 
	C160.309845,37.249130 162.546295,35.983124 164.922882,35.089966 
	C165.621796,34.827297 166.717697,35.620979 168.466385,35.991188 
M244.421921,34.929821 
	C243.801941,32.978477 243.181961,31.027132 242.582962,29.141842 
	C238.329422,29.141842 234.365784,29.141842 230.411880,29.141842 
	C225.976135,41.074772 221.587616,52.880661 217.141357,64.841866 
	C221.038803,64.841866 224.339951,64.841866 227.573776,64.841866 
	C231.042206,56.495522 227.783813,57.905243 242.499496,58.259136 
	C244.998489,65.824135 245.033173,65.841057 255.477982,64.593384 
	C251.963013,54.918228 248.448059,45.243073 244.421921,34.929821 
M274.421265,42.013912 
	C272.181244,41.261646 269.941223,40.509380 266.748291,39.437103 
	C274.627167,32.928219 280.519409,37.836910 288.205231,40.576431 
	C286.854156,36.378307 286.601501,31.438869 284.825256,30.811249 
	C278.043396,28.414883 270.869537,27.823603 263.787292,30.956726 
	C259.425659,32.886284 257.398682,36.476837 257.224365,40.495152 
	C257.026855,45.047836 260.253754,48.252407 264.550293,49.732883 
	C267.597656,50.782921 270.898163,51.086498 273.972656,52.074890 
	C275.434204,52.544762 276.631989,53.835121 277.949249,54.753815 
	C276.616974,55.820786 275.406677,57.510845 273.922424,57.801308 
	C271.945496,58.188190 269.664978,57.785770 267.676880,57.185635 
	C264.180786,56.130306 260.807556,54.668022 256.130402,52.903706 
	C257.133301,56.691620 257.125824,61.823330 258.922607,62.561119 
	C266.917450,65.843979 275.294891,66.434372 283.523132,62.178757 
	C287.726685,60.004700 288.763153,56.217232 288.795898,52.438435 
	C288.830292,48.473240 286.157898,45.495483 282.237183,44.131126 
	C279.947235,43.334255 277.580566,42.757942 274.421265,42.013912 
M205.068314,29.001492 
	C198.479095,29.001492 191.889877,29.001492 185.270645,29.001492 
	C185.270645,41.268929 185.270645,52.983166 185.270645,64.711143 
	C188.608643,64.711143 191.670624,64.711143 195.161407,64.711143 
	C195.161407,60.695721 195.161407,56.953453 195.161407,53.272270 
	C210.469528,52.180843 215.110779,49.649799 215.995483,42.119995 
	C216.816254,35.134216 213.870392,31.282677 205.068314,29.001492 
M363.000946,42.625374 
	C363.000946,52.690365 363.000946,62.755352 363.000946,72.775360 
	C366.319336,72.775360 368.924042,72.775360 372.192413,72.775360 
	C372.192413,69.417297 372.192413,66.248001 372.192413,62.987526 
	C382.464996,65.263748 388.477020,62.628899 390.852661,55.348228 
	C392.822693,49.310608 392.184540,43.259926 387.979858,38.874603 
	C384.250977,34.985458 378.849640,35.210915 373.947083,37.982437 
	C373.446594,38.265347 372.746490,38.470879 372.207886,38.364300 
	C369.366150,37.801987 366.546539,37.128036 363.291931,36.396805 
	C363.161346,38.759346 363.081146,40.209946 363.000946,42.625374 
M321.999054,49.752689 
	C320.785522,46.133518 320.563721,41.514122 318.142273,39.113247 
	C313.743896,34.752277 308.178467,37.566032 302.830078,39.706104 
	C302.830078,35.651119 302.830078,32.039845 302.830078,28.290882 
	C299.791412,28.290882 297.073151,28.290882 294.319275,28.290882 
	C294.319275,40.297810 294.319275,52.012245 294.319275,63.627796 
	C297.366852,63.627796 300.085785,63.627796 302.999084,63.627796 
	C302.999084,58.944202 303.082764,54.628128 302.971008,50.317123 
	C302.890503,47.211132 302.962555,44.882549 307.280060,44.877766 
	C311.696564,44.872871 312.016846,47.347382 312.004852,50.565357 
	C311.988342,54.983349 312.000732,59.401451 312.000732,63.765900 
	C315.663879,63.765900 318.603455,63.765900 321.999084,63.765900 
	C321.999084,59.262260 321.999084,54.977520 321.999054,49.752689 
M420.130585,55.385536 
	C412.635895,58.973568 406.700684,57.779182 404.562439,51.998947 
	C407.780823,51.998947 410.903748,51.998947 414.026672,51.998947 
	C417.295807,51.998947 420.564941,51.998947 423.722992,51.998947 
	C425.516022,39.641182 418.000061,35.268745 408.295654,36.016186 
	C402.354187,36.473808 396.691040,40.628132 395.193909,45.496292 
	C393.471558,51.096931 395.436584,57.877941 399.748688,61.213833 
	C404.027802,64.524254 417.921051,65.288788 422.435089,62.024223 
	C423.573608,61.200840 423.821259,58.706329 423.822815,56.979172 
	C423.823395,56.341156 421.936920,55.701435 420.130585,55.385536 
M327.001709,47.849316 
	C326.745544,52.720177 326.919098,57.186180 331.196350,60.893940 
	C335.057709,64.241165 339.300812,63.908337 343.700439,64.006798 
	C353.904694,64.235168 359.528076,54.231506 356.163544,44.432751 
	C354.045807,38.265049 348.741974,35.783314 340.555084,36.059746 
	C332.798462,36.321648 329.238281,39.418713 327.001709,47.849316 
M77.256813,6.161841 
	C78.571548,9.214281 81.071037,10.489657 84.117195,9.800342 
	C85.130348,9.571075 85.744568,7.578826 87.110550,5.544637 
	C82.915169,5.544637 80.233986,5.544637 77.256813,6.161841 
z"/>
<path fill="#E50D29" opacity="1.000000" stroke="none" 
	d="
M36.608963,55.781906 
	C39.086815,54.149883 41.564667,52.517864 44.811245,50.379528 
	C31.232990,45.890518 38.403339,34.986168 36.707760,26.762280 
	C41.135010,23.588820 45.562260,20.415359 51.153862,16.407290 
	C51.153862,24.058622 51.828777,30.092449 50.839672,35.839909 
	C50.411560,38.327549 46.550602,40.224415 44.262123,42.377262 
	C49.649521,47.545811 50.561108,47.650181 56.921032,43.709518 
	C59.421738,42.160061 61.947449,40.650959 65.238525,38.651596 
	C51.902653,34.092674 58.801922,23.515772 57.088188,15.589024 
	C61.492813,12.155953 65.897438,8.722881 70.302063,5.289810 
	C70.766205,5.580944 71.230339,5.872077 71.694481,6.163210 
	C71.694481,12.363029 72.332405,18.665081 71.363701,24.709654 
	C71.003227,26.958960 66.883377,28.605787 64.500061,30.509586 
	C69.975708,35.780594 70.697006,35.868389 77.315819,32.078392 
	C79.889671,30.604582 82.489700,29.176500 85.360542,27.569304 
	C86.875160,31.866705 86.312973,34.840649 82.011871,36.467033 
	C80.936340,36.873726 80.042427,37.764137 78.965317,38.162682 
	C73.024094,40.360962 70.287941,44.389530 71.770615,50.745571 
	C73.244484,57.063908 67.444069,57.599678 64.288353,60.233761 
	C69.767059,65.697266 70.589966,65.819481 76.802261,62.330601 
	C79.653107,60.729538 82.538246,59.189552 85.498917,57.572113 
	C87.066772,62.189053 85.836494,65.059212 81.691063,66.679123 
	C80.462700,67.159134 79.415794,68.110954 78.182831,68.570427 
	C72.964401,70.515129 70.628647,74.029137 71.739784,79.650894 
	C72.641579,84.213463 70.853867,87.271111 66.446960,88.858864 
	C65.585732,89.169159 64.871956,89.888725 64.023163,90.465004 
	C70.918465,95.752403 70.912994,95.742874 78.041695,91.652870 
	C80.453362,90.269196 82.900383,88.947151 85.553566,87.473457 
	C86.665688,91.742950 86.373962,94.711159 82.172539,96.400360 
	C79.727615,97.383354 77.540443,99.007439 75.118652,100.671532 
	C72.958336,101.000000 70.916664,101.000000 68.437500,101.000000 
	C67.874855,100.716446 67.817162,100.250351 67.614853,100.175606 
	C58.914162,96.960617 54.508492,91.267944 57.935806,80.430817 
	C48.356689,87.190674 43.830166,78.571480 37.657238,76.058823 
	C36.799934,75.709862 36.828621,72.812248 36.722931,71.077682 
	C36.571793,68.597290 36.674942,66.101418 36.721649,62.790894 
	C36.718849,59.907055 36.663906,57.844482 36.608963,55.781906 
M46.672497,70.080467 
	C45.676876,70.805138 44.681255,71.529808 43.579102,72.332024 
	C51.055622,77.728607 56.780308,76.559326 64.786461,67.919212 
	C53.998142,66.319305 57.929871,57.707615 56.953403,51.348236 
	C52.303429,52.291767 50.776947,54.718994 50.984581,59.163662 
	C51.160576,62.931168 53.010880,67.773392 46.672497,70.080467 
z"/>
<path fill="#E40321" opacity="1.000000" stroke="none" 
	d="
M92.031235,36.826767 
	C91.489235,34.025970 90.971596,31.641325 90.427414,29.134354 
	C93.705429,29.134354 97.004921,29.134354 100.768425,29.134354 
	C102.368599,36.021801 103.985718,42.982235 105.602844,49.942669 
	C105.866936,49.976158 106.131020,50.009644 106.395111,50.043129 
	C108.328857,43.174423 110.262611,36.305717 112.258980,29.214586 
	C115.477501,29.214586 118.777397,29.214586 122.439850,29.214586 
	C124.338493,36.203403 126.303452,43.436352 128.446655,51.325363 
	C129.971588,44.973564 131.715317,39.398682 132.545502,33.690926 
	C133.153198,29.512718 135.060516,28.484961 138.776505,28.966166 
	C140.392410,29.175421 142.057968,29.001299 144.300110,29.001299 
	C140.968338,41.245300 137.769058,53.002373 134.591736,64.678787 
	C134.323120,64.804512 134.175842,64.929863 134.023132,64.936882 
	C122.516464,65.465401 122.529358,65.461723 119.996994,54.321053 
	C119.318275,51.335175 118.534554,48.373161 116.893845,45.156830 
	C115.270256,50.532455 113.326691,55.839931 112.161011,61.313084 
	C111.596748,63.962421 110.869980,65.435677 108.170341,64.954536 
	C105.006279,64.390633 100.589745,67.221260 99.053703,61.943348 
	C96.662460,53.726910 94.382645,45.478043 92.031235,36.826767 
z"/>
<path fill="#E40321" opacity="1.000000" stroke="none" 
	d="
M168.049026,35.960861 
	C166.717697,35.620979 165.621796,34.827297 164.922882,35.089966 
	C162.546295,35.983124 160.309845,37.249130 158.019882,38.372757 
	C160.058472,39.581543 161.985138,41.078117 164.164215,41.925747 
	C166.844345,42.968281 169.867966,43.156532 172.504379,44.276184 
	C176.718735,46.065968 179.166718,49.141617 179.081818,54.166355 
	C178.997711,59.144764 176.504730,62.267170 172.358078,64.088707 
	C164.802368,67.407784 157.062881,66.793442 149.499207,64.042229 
	C146.434998,62.927654 146.297897,61.360733 147.591293,53.820736 
	C154.542374,55.581627 161.129608,63.177223 170.013580,54.688637 
	C165.647751,53.273590 162.150650,52.063908 158.606979,51.010838 
	C154.177994,49.694668 149.609940,48.369019 148.070465,43.397549 
	C145.780350,36.002033 150.361969,29.175543 158.465759,28.111095 
	C162.557510,27.573635 166.847000,27.558594 170.928406,28.140226 
	C178.282776,29.188278 178.710571,30.203051 177.544296,39.165546 
	C174.472519,38.091412 171.469452,37.041298 168.049026,35.960861 
z"/>
<path fill="#E40321" opacity="1.000000" stroke="none" 
	d="
M244.677505,35.248871 
	C248.448059,45.243073 251.963013,54.918228 255.478668,64.593132 
	C245.033173,65.841057 244.998489,65.824135 242.499496,58.259136 
	C227.783813,57.905243 231.042206,56.495522 227.573776,64.841866 
	C224.339951,64.841866 221.038803,64.841866 217.141357,64.841866 
	C221.587616,52.880661 225.976135,41.074772 230.411880,29.141842 
	C234.365784,29.141842 238.329422,29.141842 242.582962,29.141842 
	C243.181961,31.027132 243.801941,32.978477 244.677505,35.248871 
M234.042999,45.799030 
	C233.676331,47.331055 233.309647,48.863079 232.865341,50.719498 
	C235.326294,50.719498 237.534927,50.719498 240.032974,50.719498 
	C238.862534,47.165508 237.739090,43.754227 236.475128,39.916260 
	C235.691132,41.882603 235.054184,43.480106 234.042999,45.799030 
z"/>
<path fill="#4149F6" opacity="1.000000" stroke="none" 
	d="
M274.834839,42.048157 
	C277.580566,42.757942 279.947235,43.334255 282.237183,44.131126 
	C286.157898,45.495483 288.830292,48.473240 288.795898,52.438435 
	C288.763153,56.217232 287.726685,60.004700 283.523132,62.178757 
	C275.294891,66.434372 266.917450,65.843979 258.922607,62.561119 
	C257.125824,61.823330 257.133301,56.691620 256.130402,52.903706 
	C260.807556,54.668022 264.180786,56.130306 267.676880,57.185635 
	C269.664978,57.785770 271.945496,58.188190 273.922424,57.801308 
	C275.406677,57.510845 276.616974,55.820786 277.949249,54.753807 
	C276.631989,53.835121 275.434204,52.544762 273.972656,52.074890 
	C270.898163,51.086498 267.597656,50.782921 264.550293,49.732883 
	C260.253754,48.252407 257.026855,45.047836 257.224365,40.495152 
	C257.398682,36.476837 259.425659,32.886284 263.787292,30.956726 
	C270.869537,27.823603 278.043396,28.414883 284.825256,30.811249 
	C286.601501,31.438869 286.854156,36.378307 288.205231,40.576431 
	C280.519409,37.836910 274.627167,32.928219 266.748291,39.437103 
	C269.941223,40.509380 272.181244,41.261646 274.834839,42.048157 
z"/>
<path fill="#E40321" opacity="1.000000" stroke="none" 
	d="
M205.515778,29.002459 
	C213.870392,31.282677 216.816254,35.134216 215.995483,42.119995 
	C215.110779,49.649799 210.469528,52.180843 195.161407,53.272270 
	C195.161407,56.953453 195.161407,60.695721 195.161407,64.711143 
	C191.670624,64.711143 188.608643,64.711143 185.270645,64.711143 
	C185.270645,52.983166 185.270645,41.268929 185.270645,29.001492 
	C191.889877,29.001492 198.479095,29.001492 205.515778,29.002459 
M195.000824,43.310368 
	C194.527100,46.703423 197.128342,46.418106 198.794220,45.877968 
	C201.002792,45.161865 203.864258,44.060246 204.753036,42.279667 
	C205.866425,40.049091 205.413864,36.960167 201.405777,36.765965 
	C199.394531,36.668514 197.404205,36.139206 195.000061,35.737667 
	C195.000061,38.445290 195.000061,40.412949 195.000824,43.310368 
z"/>
<path fill="#4149F6" opacity="1.000000" stroke="none" 
	d="
M363.000977,42.142960 
	C363.081146,40.209946 363.161346,38.759346 363.291931,36.396805 
	C366.546539,37.128036 369.366150,37.801987 372.207886,38.364300 
	C372.746490,38.470879 373.446594,38.265347 373.947083,37.982437 
	C378.849640,35.210915 384.250977,34.985458 387.979858,38.874603 
	C392.184540,43.259926 392.822693,49.310608 390.852661,55.348228 
	C388.477020,62.628899 382.464996,65.263748 372.192413,62.987526 
	C372.192413,66.248001 372.192413,69.417297 372.192413,72.775360 
	C368.924042,72.775360 366.319336,72.775360 363.000946,72.775360 
	C363.000946,62.755352 363.000946,52.690365 363.000977,42.142960 
M377.150818,43.064533 
	C375.474518,43.494953 373.798218,43.925373 372.000000,44.387096 
	C372.000000,46.652462 372.000000,48.634758 372.000000,50.617050 
	C372.000000,52.695400 372.000000,54.773750 372.000000,56.481686 
	C376.940216,57.812233 380.520477,57.024452 381.727020,52.401367 
	C382.698334,48.679630 382.048309,45.172424 377.150818,43.064533 
z"/>
<path fill="#4149F6" opacity="1.000000" stroke="none" 
	d="
M321.999084,50.222733 
	C321.999084,54.977520 321.999084,59.262260 321.999084,63.765900 
	C318.603455,63.765900 315.663879,63.765900 312.000732,63.765900 
	C312.000732,59.401451 311.988342,54.983349 312.004852,50.565357 
	C312.016846,47.347382 311.696564,44.872871 307.280060,44.877766 
	C302.962555,44.882549 302.890503,47.211132 302.971008,50.317123 
	C303.082764,54.628128 302.999084,58.944202 302.999084,63.627796 
	C300.085785,63.627796 297.366852,63.627796 294.319275,63.627796 
	C294.319275,52.012245 294.319275,40.297810 294.319275,28.290882 
	C297.073151,28.290882 299.791412,28.290882 302.830078,28.290882 
	C302.830078,32.039845 302.830078,35.651119 302.830078,39.706104 
	C308.178467,37.566032 313.743896,34.752277 318.142273,39.113247 
	C320.563721,41.514122 320.785522,46.133518 321.999084,50.222733 
z"/>
<path fill="#4149F6" opacity="1.000000" stroke="none" 
	d="
M420.520844,55.224014 
	C421.936920,55.701435 423.823395,56.341156 423.822815,56.979172 
	C423.821259,58.706329 423.573608,61.200840 422.435089,62.024223 
	C417.921051,65.288788 404.027802,64.524254 399.748688,61.213833 
	C395.436584,57.877941 393.471558,51.096931 395.193909,45.496292 
	C396.691040,40.628132 402.354187,36.473808 408.295654,36.016186 
	C418.000061,35.268745 425.516022,39.641182 423.722992,51.998947 
	C420.564941,51.998947 417.295807,51.998947 414.026672,51.998947 
	C410.903748,51.998947 407.780823,51.998947 404.562439,51.998947 
	C406.700684,57.779182 412.635895,58.973568 420.520844,55.224014 
M405.337646,45.691982 
	C408.158264,45.691982 410.978882,45.691982 414.042603,45.691982 
	C410.872955,40.706738 408.718140,40.615280 405.337646,45.691982 
z"/>
<path fill="#4149F6" opacity="1.000000" stroke="none" 
	d="
M327.004059,47.415977 
	C329.238281,39.418713 332.798462,36.321648 340.555084,36.059746 
	C348.741974,35.783314 354.045807,38.265049 356.163544,44.432751 
	C359.528076,54.231506 353.904694,64.235168 343.700439,64.006798 
	C339.300812,63.908337 335.057709,64.241165 331.196350,60.893940 
	C326.919098,57.186180 326.745544,52.720177 327.004059,47.415977 
M346.950745,47.034801 
	C346.027863,43.925644 343.915527,41.749149 340.835785,43.205875 
	C338.964478,44.091015 337.024261,46.814316 336.871460,48.844074 
	C336.682648,51.352825 338.029755,54.157276 339.325256,56.494740 
	C339.747864,57.257195 342.188049,57.379059 343.531647,57.060562 
	C347.047089,56.227203 347.229370,53.346088 347.009003,50.379921 
	C346.947540,49.553288 346.995056,48.718559 346.950745,47.034801 
z"/>
<path fill="#615E5F" opacity="1.000000" stroke="none" 
	d="
M36.256256,55.846054 
	C36.663906,57.844482 36.718849,59.907055 36.660583,62.311600 
	C34.313801,63.556213 31.533745,65.773109 29.949438,65.114334 
	C25.254099,63.161938 20.706909,60.463760 16.804556,57.213451 
	C15.508134,56.133644 16.226860,52.497517 16.219694,50.029510 
	C16.180548,36.548737 16.200733,36.547264 28.163166,30.251013 
	C28.733860,29.950640 29.338015,29.713846 30.767509,29.066824 
	C30.767509,35.728188 31.386745,42.011818 30.446817,48.052853 
	C30.096464,50.304615 26.102856,51.989525 23.776281,53.928120 
	C28.708942,58.887760 29.847265,59.078819 36.256256,55.846054 
z"/>
<path fill="#C3C2C2" opacity="1.000000" stroke="none" 
	d="
M77.404800,5.853239 
	C80.233986,5.544637 82.915169,5.544637 87.110550,5.544637 
	C85.744568,7.578826 85.130348,9.571075 84.117195,9.800342 
	C81.071037,10.489657 78.571548,9.214281 77.404800,5.853239 
z"/>
<path fill="#FDF1F2" opacity="1.000000" stroke="none" 
	d="
M47.010265,69.901154 
	C53.010880,67.773392 51.160576,62.931168 50.984581,59.163662 
	C50.776947,54.718994 52.303429,52.291767 56.953403,51.348236 
	C57.929871,57.707615 53.998142,66.319305 64.786461,67.919212 
	C56.780308,76.559326 51.055622,77.728607 43.579102,72.332024 
	C44.681255,71.529808 45.676876,70.805138 47.010265,69.901154 
z"/>
<path fill="#FFFFFF" opacity="1.000000" stroke="none" 
	d="
M234.230118,45.438316 
	C235.054184,43.480106 235.691132,41.882603 236.475128,39.916260 
	C237.739090,43.754227 238.862534,47.165508 240.032974,50.719498 
	C237.534927,50.719498 235.326294,50.719498 232.865341,50.719498 
	C233.309647,48.863079 233.676331,47.331055 234.230118,45.438316 
z"/>
<path fill="#FFFFFF" opacity="1.000000" stroke="none" 
	d="
M195.000443,42.845490 
	C195.000061,40.412949 195.000061,38.445290 195.000061,35.737667 
	C197.404205,36.139206 199.394531,36.668514 201.405777,36.765965 
	C205.413864,36.960167 205.866425,40.049091 204.753036,42.279667 
	C203.864258,44.060246 201.002792,45.161865 198.794220,45.877968 
	C197.128342,46.418106 194.527100,46.703423 195.000443,42.845490 
z"/>
<path fill="#FFFFFF" opacity="1.000000" stroke="none" 
	d="
M377.521729,43.234024 
	C382.048309,45.172424 382.698334,48.679630 381.727020,52.401367 
	C380.520477,57.024452 376.940216,57.812233 372.000000,56.481686 
	C372.000000,54.773750 372.000000,52.695400 372.000000,50.617050 
	C372.000000,48.634758 372.000000,46.652462 372.000000,44.387096 
	C373.798218,43.925373 375.474518,43.494953 377.521729,43.234024 
z"/>
<path fill="#FFFFFF" opacity="1.000000" stroke="none" 
	d="
M405.225922,45.295547 
	C408.718140,40.615280 410.872955,40.706738 414.042603,45.691982 
	C410.978882,45.691982 408.158264,45.691982 405.225922,45.295547 
z"/>
<path fill="#FFFFFF" opacity="1.000000" stroke="none" 
	d="
M346.971680,47.461174 
	C346.995056,48.718559 346.947540,49.553288 347.009003,50.379921 
	C347.229370,53.346088 347.047089,56.227203 343.531647,57.060562 
	C342.188049,57.379059 339.747864,57.257195 339.325256,56.494740 
	C338.029755,54.157276 336.682648,51.352825 336.871460,48.844074 
	C337.024261,46.814316 338.964478,44.091015 340.835785,43.205875 
	C343.915527,41.749149 346.027863,43.925644 346.971680,47.461174 
z"/>
</svg>